REM MD5 2be23522d5f9264022727c3b5ebff8ba
FILE "Idol Janshi Suchie-Pai II Limited (Japan) (Disc 2) (Bonus Disc Part 1).bin" BINARY
  TRACK 01 MODE2/2352
    INDEX 01 00:00:00
  TRACK 02 AUDIO
    INDEX 00 66:03:14
    INDEX 01 66:05:14
  TRACK 03 AUDIO
    INDEX 00 66:40:18
    INDEX 01 66:42:18
  TRACK 04 AUDIO
    INDEX 00 68:34:38
    INDEX 01 68:36:38
REM LEADOUT 69:56:42
